<?xml version="1.0" encoding="UTF-8"?>
<svg id="_레이어_2" xmlns="http://www.w3.org/2000/svg" xmlns:xlink="http://www.w3.org/1999/xlink" version="1.1" viewBox="0 0 1313.6 275.5">
  <!-- Generator: Adobe Illustrator 30.0.0, SVG Export Plug-In . SVG Version: 2.1.1 Build 123)  -->
  <defs>
    <style>
      .st0 {
        fill: url(#_무제_그라디언트_12);
      }
    </style>
    <linearGradient id="_무제_그라디언트_12" data-name="무제 그라디언트 12" x1="493.2" y1="423.6" x2="880.7" y2="-247.4" gradientTransform="translate(0 278) scale(1 -1)" gradientUnits="userSpaceOnUse">
      <stop offset="0" stop-color="#dc143c"/>
      <stop offset=".4" stop-color="#1e1e1e"/>
      <stop offset=".8" stop-color="#fff"/>
    </linearGradient>
  </defs>
  <g id="_레이어_1-2">
    <path class="st0" d="M0,251.2v-10.2L241,0h68.9v275.5h-68.9v-34.4h-103.3l68.9-68.9h34.4v-68.9l-172.2,172.2H0v-24.2h0ZM334.6,82.6V0h241l-68.9,68.9h-103.3v206.6h-68.9V82.6h0ZM437.9,103.3h68.9L610,0h34.4v68.9l-103.3,103.3h-103.3v-68.9ZM669.2,34.4V0h68.9l68.9,68.9-51.7,51.7-86.1-86.1h0ZM772.4,137.7L910.2,0h68.9v34.4l-137.7,137.7v103.3h-68.9v-137.7h0ZM1003.7,251.2v-10.2L1244.8,0h68.9v34.4l-241,241h-68.9v-24.2ZM1003.7,34.4V0h68.9l68.9,68.9-51.7,51.7-86.1-86.1h0ZM1175.9,206.6l51.7-51.6,86.1,86.1v34.4h-68.9l-68.9-68.9h0Z"/>
  </g>
</svg>